<svg width="95" height="29" viewBox="0 0 95 29" fill="none" xmlns="http://www.w3.org/2000/svg">
<path d="M36.024 20.9294H39.784V22.4014H34.2V11.2814H36.024V20.9294ZM41.5974 12.4174C41.2667 12.4174 40.9894 12.3054 40.7654 12.0814C40.5414 11.8574 40.4294 11.58 40.4294 11.2494C40.4294 10.9187 40.5414 10.6414 40.7654 10.4174C40.9894 10.1934 41.2667 10.0814 41.5974 10.0814C41.9174 10.0814 42.1894 10.1934 42.4134 10.4174C42.6374 10.6414 42.7494 10.9187 42.7494 11.2494C42.7494 11.58 42.6374 11.8574 42.4134 12.0814C42.1894 12.3054 41.9174 12.4174 41.5974 12.4174ZM42.4934 13.5854V22.4014H40.6694V13.5854H42.4934ZM48.6961 13.4414C49.3895 13.4414 50.0081 13.5854 50.5521 13.8734C51.1068 14.1614 51.5388 14.588 51.8481 15.1534C52.1575 15.7187 52.3121 16.4014 52.3121 17.2014V22.4014H50.5041V17.4734C50.5041 16.684 50.3068 16.0814 49.9121 15.6654C49.5175 15.2387 48.9788 15.0254 48.2961 15.0254C47.6135 15.0254 47.0695 15.2387 46.6641 15.6654C46.2695 16.0814 46.0721 16.684 46.0721 17.4734V22.4014H44.2481V13.5854H46.0721V14.5934C46.3708 14.2307 46.7495 13.948 47.2081 13.7454C47.6775 13.5427 48.1735 13.4414 48.6961 13.4414ZM57.4868 18.0014L61.5508 22.4014H59.0868L55.8228 18.6094V22.4014H53.9987V10.5614H55.8228V17.4414L59.0228 13.5854H61.5508L57.4868 18.0014ZM70.2981 17.7774C70.2981 18.108 70.2768 18.4067 70.2341 18.6734H63.4981C63.5515 19.3774 63.8128 19.9427 64.2821 20.3694C64.7515 20.796 65.3275 21.0094 66.0101 21.0094C66.9915 21.0094 67.6848 20.5987 68.0901 19.7774H70.0581C69.7915 20.588 69.3061 21.2547 68.6021 21.7774C67.9088 22.2894 67.0448 22.5454 66.0101 22.5454C65.1675 22.5454 64.4101 22.3587 63.7381 21.9854C63.0768 21.6014 62.5541 21.068 62.1701 20.3854C61.7968 19.692 61.6101 18.892 61.6101 17.9854C61.6101 17.0787 61.7915 16.284 62.1541 15.6014C62.5275 14.908 63.0448 14.3747 63.7061 14.0014C64.3781 13.628 65.1461 13.4414 66.0101 13.4414C66.8421 13.4414 67.5835 13.6227 68.2341 13.9854C68.8848 14.348 69.3915 14.86 69.7541 15.5214C70.1168 16.172 70.2981 16.924 70.2981 17.7774ZM68.3941 17.2014C68.3835 16.5294 68.1435 15.9907 67.6741 15.5854C67.2048 15.18 66.6235 14.9774 65.9301 14.9774C65.3008 14.9774 64.7621 15.18 64.3141 15.5854C63.8661 15.98 63.5995 16.5187 63.5141 17.2014H68.3941ZM70.8451 17.9534C70.8451 17.068 71.0265 16.284 71.3891 15.6014C71.7625 14.9187 72.2638 14.3907 72.8931 14.0174C73.5331 13.6334 74.2425 13.4414 75.0211 13.4414C75.5971 13.4414 76.1625 13.5694 76.7171 13.8254C77.2825 14.0707 77.7305 14.4014 78.0611 14.8174V10.5614H79.9011V22.4014H78.0611V21.0734C77.7625 21.5 77.3465 21.852 76.8131 22.1294C76.2905 22.4067 75.6878 22.5454 75.0051 22.5454C74.2371 22.5454 73.5331 22.3534 72.8931 21.9694C72.2638 21.5747 71.7625 21.0307 71.3891 20.3374C71.0265 19.6334 70.8451 18.8387 70.8451 17.9534ZM78.0611 17.9854C78.0611 17.3774 77.9331 16.8494 77.6771 16.4014C77.4318 15.9534 77.1065 15.612 76.7011 15.3774C76.2958 15.1427 75.8585 15.0254 75.3891 15.0254C74.9198 15.0254 74.4825 15.1427 74.0771 15.3774C73.6718 15.6014 73.3411 15.9374 73.0851 16.3854C72.8398 16.8227 72.7171 17.3454 72.7171 17.9534C72.7171 18.5614 72.8398 19.0947 73.0851 19.5534C73.3411 20.012 73.6718 20.364 74.0771 20.6094C74.4931 20.844 74.9305 20.9614 75.3891 20.9614C75.8585 20.9614 76.2958 20.844 76.7011 20.6094C77.1065 20.3747 77.4318 20.0334 77.6771 19.5854C77.9331 19.1267 78.0611 18.5934 78.0611 17.9854ZM82.5849 12.4174C82.2542 12.4174 81.9769 12.3054 81.7529 12.0814C81.5289 11.8574 81.4169 11.58 81.4169 11.2494C81.4169 10.9187 81.5289 10.6414 81.7529 10.4174C81.9769 10.1934 82.2542 10.0814 82.5849 10.0814C82.9049 10.0814 83.1769 10.1934 83.4009 10.4174C83.6249 10.6414 83.7369 10.9187 83.7369 11.2494C83.7369 11.58 83.6249 11.8574 83.4009 12.0814C83.1769 12.3054 82.9049 12.4174 82.5849 12.4174ZM83.4809 13.5854V22.4014H81.6569V13.5854H83.4809ZM89.6836 13.4414C90.377 13.4414 90.9956 13.5854 91.5396 13.8734C92.0943 14.1614 92.5263 14.588 92.8356 15.1534C93.145 15.7187 93.2996 16.4014 93.2996 17.2014V22.4014H91.4916V17.4734C91.4916 16.684 91.2943 16.0814 90.8996 15.6654C90.505 15.2387 89.9663 15.0254 89.2836 15.0254C88.601 15.0254 88.057 15.2387 87.6516 15.6654C87.257 16.0814 87.0596 16.684 87.0596 17.4734V22.4014H85.2356V13.5854H87.0596V14.5934C87.3583 14.2307 87.737 13.948 88.1956 13.7454C88.665 13.5427 89.161 13.4414 89.6836 13.4414Z" fill="#999FAE"/>
<path d="M0 2.19223C0 1.20368 0.822312 0.401367 1.83611 0.401367H23.0064C24.0206 0.401367 24.8426 1.20368 24.8426 2.19223V23.6108C24.8426 24.5997 24.0206 25.4014 23.0064 25.4014H1.83611C0.822312 25.4014 0 24.5997 0 23.6112V2.19191V2.19223Z" fill="#0A66C2"/>
<path d="M7.53046 20.9271V9.63813H3.7782V20.9271H7.53078H7.53046ZM5.65499 8.09709C6.96322 8.09709 7.77768 7.23017 7.77768 6.14685C7.75308 5.03894 6.96322 4.19629 5.6799 4.19629C4.3956 4.19629 3.55688 5.03894 3.55688 6.14685C3.55688 7.23017 4.37101 8.09709 5.63039 8.09709H5.65465H5.65499ZM9.60724 20.9271H13.3592V14.6236C13.3592 14.2865 13.3838 13.9488 13.4828 13.7081C13.7539 13.0337 14.3713 12.3356 15.4081 12.3356C16.7655 12.3356 17.3088 13.3707 17.3088 14.8885V20.9271H21.0607V14.4544C21.0607 10.987 19.2098 9.37353 16.7412 9.37353C14.7172 9.37353 13.8284 10.5047 13.3346 11.2752H13.3595V9.63846H9.60757C9.65642 10.6975 9.60724 20.9274 9.60724 20.9274V20.9271Z" fill="white"/>
</svg>
