<svg width="178" height="33" viewBox="0 0 178 33" fill="none" xmlns="http://www.w3.org/2000/svg">
<path d="M0.912023 28.348C0.61869 27.9373 0.48669 27.4093 0.516023 26.764C0.545357 26.1187 0.92669 25.5613 1.66002 25.092C2.12936 24.7987 2.62802 24.6813 3.15602 24.74C3.68402 24.7693 4.19736 25.0333 4.69602 25.532C5.54669 26.3827 6.44136 27.0427 7.38002 27.512C8.31869 27.9813 9.49202 28.216 10.9 28.216C11.34 28.1867 11.824 28.128 12.352 28.04C12.88 27.9227 13.3347 27.688 13.716 27.336C14.1267 26.9547 14.332 26.3827 14.332 25.62C14.332 24.9747 14.112 24.4613 13.672 24.08C13.232 23.6987 12.6454 23.376 11.912 23.112C11.208 22.848 10.416 22.5987 9.53602 22.364C8.62669 22.1 7.68802 21.8067 6.72002 21.484C5.78136 21.1613 4.91602 20.7507 4.12402 20.252C3.33202 19.724 2.68669 19.0347 2.18802 18.184C1.68936 17.3333 1.44002 16.2627 1.44002 14.972C1.44002 13.5053 1.85069 12.2587 2.67202 11.232C3.49336 10.2053 4.54936 9.41333 5.84002 8.856C7.16002 8.29867 8.53869 8.02 9.97602 8.02C10.8854 8.02 11.8387 8.13733 12.836 8.372C13.8334 8.57733 14.7867 8.92933 15.696 9.428C16.6054 9.89733 17.368 10.528 17.984 11.32C18.3067 11.76 18.4974 12.288 18.556 12.904C18.6147 13.52 18.336 14.0773 17.72 14.576C17.28 14.928 16.7667 15.0893 16.18 15.06C15.5934 15.0013 15.1094 14.796 14.728 14.444C14.2294 13.7987 13.5547 13.2853 12.704 12.904C11.8827 12.5227 10.9294 12.332 9.84402 12.332C9.40402 12.332 8.92002 12.3907 8.39202 12.508C7.89336 12.596 7.45336 12.816 7.07202 13.168C6.69069 13.4907 6.50002 14.0187 6.50002 14.752C6.50002 15.4267 6.72002 15.9693 7.16002 16.38C7.60002 16.7613 8.18669 17.084 8.92002 17.348C9.68269 17.5827 10.4894 17.8173 11.34 18.052C12.22 18.2867 13.1147 18.5653 14.024 18.888C14.9334 19.2107 15.7694 19.636 16.532 20.164C17.2947 20.692 17.9107 21.3813 18.38 22.232C18.8494 23.0533 19.084 24.1093 19.084 25.4C19.084 26.896 18.644 28.172 17.764 29.228C16.884 30.284 15.784 31.0907 14.464 31.648C13.144 32.176 11.7947 32.44 10.416 32.44C8.68536 32.44 6.95469 32.1467 5.22402 31.56C3.49336 30.944 2.05602 29.8733 0.912023 28.348ZM35.8666 8.02C38.2133 8.02 39.9439 8.592 41.0586 9.736C42.1732 10.8507 42.9066 12.3027 43.2586 14.092L42.5106 13.696L42.8626 12.992C43.2146 12.3173 43.7572 11.5987 44.4906 10.836C45.2239 10.044 46.1039 9.384 47.1306 8.856C48.1866 8.29867 49.3599 8.02 50.6506 8.02C52.7626 8.02 54.3612 8.47467 55.4466 9.384C56.5612 10.2933 57.3239 11.5107 57.7346 13.036C58.1452 14.532 58.3506 16.204 58.3506 18.052V29.316C58.3506 30.0787 58.1012 30.724 57.6026 31.252C57.1039 31.7507 56.4732 32 55.7106 32C54.9479 32 54.3172 31.7507 53.8186 31.252C53.3199 30.724 53.0706 30.0787 53.0706 29.316V18.052C53.0706 17.084 52.9532 16.2187 52.7186 15.456C52.4839 14.664 52.0586 14.0333 51.4426 13.564C50.8266 13.0947 49.9466 12.86 48.8026 12.86C47.6879 12.86 46.7346 13.0947 45.9426 13.564C45.1506 14.0333 44.5493 14.664 44.1386 15.456C43.7572 16.2187 43.5666 17.084 43.5666 18.052V29.316C43.5666 30.0787 43.3172 30.724 42.8186 31.252C42.3199 31.7507 41.6892 32 40.9266 32C40.1639 32 39.5333 31.7507 39.0346 31.252C38.5359 30.724 38.2866 30.0787 38.2866 29.316V18.052C38.2866 17.084 38.1692 16.2187 37.9346 15.456C37.6999 14.664 37.2746 14.0333 36.6586 13.564C36.0426 13.0947 35.1626 12.86 34.0186 12.86C32.9039 12.86 31.9506 13.0947 31.1586 13.564C30.3666 14.0333 29.7653 14.664 29.3546 15.456C28.9733 16.2187 28.7826 17.084 28.7826 18.052V29.316C28.7826 30.0787 28.5333 30.724 28.0346 31.252C27.5359 31.7507 26.9053 32 26.1426 32C25.3799 32 24.7493 31.7507 24.2506 31.252C23.7519 30.724 23.5026 30.0787 23.5026 29.316V11.144C23.5026 10.3813 23.7519 9.75067 24.2506 9.252C24.7493 8.724 25.3799 8.46 26.1426 8.46C26.9053 8.46 27.5359 8.724 28.0346 9.252C28.5333 9.75067 28.7826 10.3813 28.7826 11.144V13.036L28.1226 12.904C28.3866 12.4053 28.7533 11.8773 29.2226 11.32C29.6919 10.7333 30.2639 10.1907 30.9386 9.692C31.6132 9.19333 32.3612 8.79733 33.1826 8.504C34.0039 8.18133 34.8986 8.02 35.8666 8.02ZM83.3371 8.02C84.0997 8.02 84.7304 8.26933 85.2291 8.768C85.7277 9.26667 85.9771 9.912 85.9771 10.704V29.316C85.9771 30.0787 85.7277 30.724 85.2291 31.252C84.7304 31.7507 84.0997 32 83.3371 32C82.5744 32 81.9437 31.7507 81.4451 31.252C80.9464 30.724 80.6971 30.0787 80.6971 29.316V27.16L81.6651 27.556C81.6651 27.9373 81.4597 28.4067 81.0491 28.964C80.6384 29.492 80.0811 30.02 79.3771 30.548C78.6731 31.076 77.8371 31.5307 76.8691 31.912C75.9304 32.264 74.9037 32.44 73.7891 32.44C71.7651 32.44 69.9317 31.9267 68.2891 30.9C66.6464 29.844 65.3411 28.4067 64.3731 26.588C63.4344 24.74 62.9651 22.628 62.9651 20.252C62.9651 17.8467 63.4344 15.7347 64.3731 13.916C65.3411 12.068 66.6317 10.6307 68.2451 9.604C69.8584 8.548 71.6477 8.02 73.6131 8.02C74.8744 8.02 76.0331 8.21067 77.0891 8.592C78.1451 8.97333 79.0544 9.45733 79.8171 10.044C80.6091 10.6307 81.2104 11.232 81.6211 11.848C82.0611 12.4347 82.2811 12.9333 82.2811 13.344L80.6971 13.916V10.704C80.6971 9.94133 80.9464 9.31067 81.4451 8.812C81.9437 8.284 82.5744 8.02 83.3371 8.02ZM74.4491 27.6C75.7397 27.6 76.8691 27.2773 77.8371 26.632C78.8051 25.9867 79.5531 25.1067 80.0811 23.992C80.6384 22.8773 80.9171 21.6307 80.9171 20.252C80.9171 18.844 80.6384 17.5827 80.0811 16.468C79.5531 15.3533 78.8051 14.4733 77.8371 13.828C76.8691 13.1827 75.7397 12.86 74.4491 12.86C73.1877 12.86 72.0731 13.1827 71.1051 13.828C70.1371 14.4733 69.3744 15.3533 68.8171 16.468C68.2891 17.5827 68.0251 18.844 68.0251 20.252C68.0251 21.6307 68.2891 22.8773 68.8171 23.992C69.3744 25.1067 70.1371 25.9867 71.1051 26.632C72.0731 27.2773 73.1877 27.6 74.4491 27.6ZM94.334 32C93.5713 32 92.9407 31.7507 92.442 31.252C91.9433 30.724 91.694 30.0787 91.694 29.316V11.144C91.694 10.3813 91.9433 9.75067 92.442 9.252C92.9407 8.724 93.5713 8.46 94.334 8.46C95.0967 8.46 95.7273 8.724 96.226 9.252C96.7247 9.75067 96.974 10.3813 96.974 11.144V15.28L96.666 12.332C96.9887 11.628 97.3993 11.012 97.898 10.484C98.426 9.92667 99.0127 9.472 99.658 9.12C100.303 8.73867 100.993 8.46 101.726 8.284C102.459 8.108 103.193 8.02 103.926 8.02C104.806 8.02 105.539 8.26933 106.126 8.768C106.742 9.26667 107.05 9.85333 107.05 10.528C107.05 11.496 106.801 12.2 106.302 12.64C105.803 13.0507 105.261 13.256 104.674 13.256C104.117 13.256 103.603 13.1533 103.134 12.948C102.694 12.7427 102.181 12.64 101.594 12.64C101.066 12.64 100.523 12.772 99.966 13.036C99.438 13.2707 98.9393 13.652 98.47 14.18C98.03 14.708 97.6633 15.368 97.37 16.16C97.106 16.9227 96.974 17.832 96.974 18.888V29.316C96.974 30.0787 96.7247 30.724 96.226 31.252C95.7273 31.7507 95.0967 32 94.334 32ZM111.036 8.9H121.464C122.168 8.9 122.755 9.13467 123.224 9.604C123.693 10.0733 123.928 10.66 123.928 11.364C123.928 12.0387 123.693 12.6107 123.224 13.08C122.755 13.52 122.168 13.74 121.464 13.74H111.036C110.332 13.74 109.745 13.5053 109.276 13.036C108.807 12.5667 108.572 11.98 108.572 11.276C108.572 10.6013 108.807 10.044 109.276 9.604C109.745 9.13467 110.332 8.9 111.036 8.9ZM115.744 3.4C116.507 3.4 117.123 3.664 117.592 4.192C118.091 4.69067 118.34 5.32133 118.34 6.084V25.664C118.34 26.0747 118.413 26.412 118.56 26.676C118.736 26.94 118.956 27.1307 119.22 27.248C119.513 27.3653 119.821 27.424 120.144 27.424C120.496 27.424 120.819 27.3653 121.112 27.248C121.405 27.1013 121.743 27.028 122.124 27.028C122.535 27.028 122.901 27.2187 123.224 27.6C123.576 27.9813 123.752 28.5093 123.752 29.184C123.752 30.0053 123.297 30.68 122.388 31.208C121.508 31.736 120.555 32 119.528 32C118.912 32 118.223 31.956 117.46 31.868C116.727 31.7507 116.023 31.5013 115.348 31.12C114.703 30.7093 114.16 30.0933 113.72 29.272C113.28 28.4507 113.06 27.3213 113.06 25.884V6.084C113.06 5.32133 113.309 4.69067 113.808 4.192C114.336 3.664 114.981 3.4 115.744 3.4ZM130.8 21.132C130.037 21.132 129.392 20.8827 128.864 20.384C128.365 19.8853 128.116 19.2547 128.116 18.492C128.116 17.7293 128.365 17.1133 128.864 16.644C129.392 16.1453 130.037 15.896 130.8 15.896H138.456C139.219 15.896 139.849 16.16 140.348 16.688C140.876 17.1867 141.14 17.8173 141.14 18.58C141.14 19.3133 140.876 19.9293 140.348 20.428C139.849 20.8973 139.219 21.132 138.456 21.132H130.8ZM163.689 8.46C164.452 8.46 165.083 8.724 165.581 9.252C166.08 9.75067 166.329 10.3813 166.329 11.144V22.32C166.329 25.4293 165.464 27.8933 163.733 29.712C162.003 31.5307 159.509 32.44 156.253 32.44C152.997 32.44 150.504 31.5307 148.773 29.712C147.072 27.8933 146.221 25.4293 146.221 22.32V11.144C146.221 10.3813 146.471 9.75067 146.969 9.252C147.468 8.724 148.099 8.46 148.861 8.46C149.624 8.46 150.255 8.724 150.753 9.252C151.252 9.75067 151.501 10.3813 151.501 11.144V22.32C151.501 24.1093 151.897 25.444 152.689 26.324C153.481 27.1747 154.669 27.6 156.253 27.6C157.867 27.6 159.069 27.1747 159.861 26.324C160.653 25.444 161.049 24.1093 161.049 22.32V11.144C161.049 10.3813 161.299 9.75067 161.797 9.252C162.296 8.724 162.927 8.46 163.689 8.46ZM177.018 29.316C177.018 30.0787 176.768 30.724 176.27 31.252C175.771 31.7507 175.14 32 174.378 32C173.615 32 172.984 31.7507 172.486 31.252C171.987 30.724 171.738 30.0787 171.738 29.316V11.144C171.738 10.3813 171.987 9.75067 172.486 9.252C172.984 8.724 173.615 8.46 174.378 8.46C175.14 8.46 175.771 8.724 176.27 9.252C176.768 9.75067 177.018 10.3813 177.018 11.144V29.316ZM174.334 5.6C173.336 5.6 172.632 5.43867 172.222 5.116C171.811 4.79333 171.606 4.22133 171.606 3.4V2.564C171.606 1.71334 171.826 1.14134 172.266 0.848003C172.735 0.525335 173.439 0.364001 174.378 0.364001C175.404 0.364001 176.123 0.525335 176.534 0.848003C176.944 1.17067 177.15 1.74267 177.15 2.564V3.4C177.15 4.25067 176.93 4.83733 176.49 5.16C176.05 5.45333 175.331 5.6 174.334 5.6Z" fill="url(#paint0_linear_60_2178)"/>
<defs>
<linearGradient id="paint0_linear_60_2178" x1="68.7219" y1="-2" x2="82.9351" y2="36.926" gradientUnits="userSpaceOnUse">
<stop stop-color="#28B674"/>
<stop offset="1" stop-color="#8CC641"/>
</linearGradient>
</defs>
</svg>
